# xmcd
#
# Track frame offsets:
#	150
#	12642
#	22504
#	33972
#	45377
#	55819
#	64965
#	76441
#	86975
#	100484
#	112443
#	124510
#
# Disc length: 1813 seconds
#
# Revision: 1
# Processed by: cddbd v1.5.1PL0 Copyright (c) Steve Scherf et al.
# Submitted via: audiograbber 1.83.01
#
DISCID=9c07130c
DTITLE=George Jones - George Jones' Greatest Hits
DYEAR=1962
DGENRE=Country
TTITLE0=Take Me
TTITLE1=I'm A People
TTITLE2=I'm Wasting Good Paper
TTITLE3=Old Brush Arbor
TTITLE4=Close Together (As You and Me)
TTITLE5=Love Bug
TTITLE6=The Race Is On (Instrumental)
TTITLE7=Walk Through This World with Me
TTITLE8=Things Have Gone To Pieces
TTITLE9=My Favorite Lies
TTITLE10=White Lightning
TTITLE11=Four-O-Thirty Three
EXTD=Musicor MS-3116
EXTT0=
EXTT1=
EXTT2=
EXTT3=
EXTT4=
EXTT5=
EXTT6=
EXTT7=
EXTT8=
EXTT9=
EXTT10=
EXTT11=
PLAYORDER=
